HIERARCHY
ROOT Hips
{
	OFFSET 0.000000 0.000000 0.000000 
	CHANNELS 6 Xposition Yposition Zposition Zrotation Yrotation Xrotation
	JOINT LeftUpLeg
	{
		OFFSET 1.363060 -1.794630 0.839290 
		CHANNELS 3 Zrotation Yrotation Xrotation
		JOINT LeftLeg
		{
			OFFSET 2.448110 -6.726130 0.000000 
			CHANNELS 3 Zrotation Yrotation Xrotation
			JOINT LeftFoot
			{
				OFFSET 2.562200 -7.039590 0.000000 
				CHANNELS 3 Zrotation Yrotation Xrotation
				JOINT LeftToeBase
				{
					OFFSET 0.157640 -0.433110 2.322550 
					CHANNELS 3 Zrotation Yrotation Xrotation
					End Site
					{
						OFFSET 0.000000 0.000000 0.000000 
					}
				}
			}
		}
	}
	JOINT RightUpLeg
	{
		OFFSET -1.305520 -1.794630 0.839290 
		CHANNELS 3 Zrotation Yrotation Xrotation
		JOINT RightLeg
		{
			OFFSET -2.542530 -6.985550 0.000000 
			CHANNELS 3 Zrotation Yrotation Xrotation
			JOINT RightFoot
			{
				OFFSET -2.568260 -7.056230 0.000000 
				CHANNELS 3 Zrotation Yrotation Xrotation
				JOINT RightToeBase
				{
					OFFSET -0.164730 -0.452590 2.363150 
					CHANNELS 3 Zrotation Yrotation Xrotation
					End Site
					{
						OFFSET 0.000000 0.000000 0.000000 
					}
				}
			}
		}
	}
	JOINT Spine
	{
		OFFSET 0.028270 2.035590 -0.193380 
		CHANNELS 3 Zrotation Yrotation Xrotation
		JOINT Spine1
		{
			OFFSET 0.056720 2.048850 -0.042750 
			CHANNELS 3 Zrotation Yrotation Xrotation
			JOINT Neck1
			{
				OFFSET -0.054170 1.746240 0.172020 
				CHANNELS 3 Zrotation Yrotation Xrotation
				JOINT Head
				{
					OFFSET 0.104070 1.761360 -0.123970 
					CHANNELS 3 Zrotation Yrotation Xrotation
					End Site
					{
						OFFSET 0.000000 0.000000 0.000000 
					}
				}
			}
			JOINT LeftArm
			{
				OFFSET 3.362410 1.200890 -0.311210 
				CHANNELS 3 Zrotation Yrotation Xrotation
				JOINT LeftForeArm
				{
					OFFSET 4.983000 -0.000000 -0.000000 
					CHANNELS 3 Zrotation Yrotation Xrotation
					JOINT LeftHand
					{
						OFFSET 3.483560 -0.000000 -0.000000 
						CHANNELS 3 Zrotation Yrotation Xrotation
						JOINT LeftHandIndex1
						{
							OFFSET 0.715260 -0.000000 -0.000000 
							CHANNELS 3 Zrotation Yrotation Xrotation
							End Site
							{
								OFFSET 0.000000 0.000000 0.000000 
							}
						}
					}
				}
			}
			JOINT RightArm
			{
				OFFSET -3.136600 1.374050 -0.404650 
				CHANNELS 3 Zrotation Yrotation Xrotation
				JOINT RightForeArm
				{
					OFFSET -5.241900 -0.000000 -0.000000 
					CHANNELS 3 Zrotation Yrotation Xrotation
					JOINT RightHand
					{
						OFFSET -3.444170 -0.000000 -0.000000 
						CHANNELS 3 Zrotation Yrotation Xrotation
						JOINT RightHandIndex1
						{
							OFFSET -0.622530 -0.000000 -0.000000 
							CHANNELS 3 Zrotation Yrotation Xrotation
							End Site
							{
								OFFSET 0.000000 0.000000 0.000000 
							}
						}
					}
				}
			}
		}
	}
}
MOTION
Frames: 9
Frame Time: 0.041667
-5.954712 17.825465 3.132688 -6.507636 33.497690 5.643519 4.251397 16.262936 -12.178894 4.104704 11.118037 33.926543 -1.681308 16.689247 18.088102 3.495400 -11.456800 -33.836500 18.519259 26.248183 -20.368890 -2.584028 -9.219153 28.726863 -0.477199 25.011682 16.562648 -3.820400 -11.917500 35.440600 -10.656583 -14.357836 -3.350260 7.326291 -6.956547 0.181055 -7.964096 32.242883 8.826890 -1.124800 14.697500 7.815300 163.477772 -36.812999 -172.602126 26.104007 -34.328072 -7.841915 0.471491 0.244722 0.079378 -7.125000 0.000000 0.000000 24.594499 45.549939 -29.678184 -131.580815 53.055991 -92.752610 0.482065 -0.462769 -3.111153 7.125000 0.000000 0.000000 
-5.948801 17.831576 3.105338 -6.573084 33.805157 5.660573 4.167086 16.242355 -12.365942 4.085381 11.128435 33.967644 -1.727994 16.432110 17.452741 3.436200 -11.369800 -33.537400 18.428326 26.188347 -20.426233 -2.555221 -9.160898 28.531440 -0.487519 24.945368 16.014574 -3.543800 -11.527300 34.079600 -10.592527 -14.397998 -3.369611 7.353627 -6.970445 0.096325 -8.026220 32.255955 8.777299 -1.168200 14.716400 7.789700 163.726021 -36.954341 -172.944016 25.862575 -34.085995 -7.700071 0.454882 0.249752 -0.073144 -7.125000 0.000000 0.000000 25.060638 45.851285 -29.484298 -131.160239 53.247751 -92.406303 0.475499 -0.465819 -3.604317 7.125000 0.000000 0.000000 
-5.943391 17.834281 3.075885 -6.695612 34.122788 5.663029 4.107993 16.185559 -12.534500 4.055837 11.124571 33.970087 -1.825636 16.245110 16.523172 3.248800 -11.087400 -32.575100 18.379979 26.127957 -20.571322 -2.539272 -9.120255 28.405978 -0.500180 24.860013 15.567236 -3.292800 -11.154500 32.802900 -10.464111 -14.392844 -3.224532 7.369459 -6.980887 0.125863 -7.922116 32.307116 8.801156 -1.112900 14.737400 7.779700 163.814028 -37.135240 -172.958664 25.659918 -33.874168 -7.578429 0.435984 0.254664 -0.461868 -7.125000 0.000000 0.000000 25.413628 46.209979 -29.366811 -130.870118 53.377153 -92.168021 0.470751 -0.464817 -5.085208 7.125000 0.000000 0.000000 
-5.941387 17.832778 3.045329 -6.919234 34.469474 5.608691 4.105204 16.228590 -12.772546 4.022771 11.110045 33.956766 -1.781616 15.615163 16.023432 3.331700 -11.213600 -33.003600 18.354322 26.149998 -20.724355 -2.524050 -9.087206 28.322345 -0.547982 24.483158 15.601080 -3.318700 -11.194000 32.936900 -10.295188 -14.296626 -2.930931 7.355349 -6.959552 0.223853 -7.888527 32.230482 8.733915 -1.102000 14.700600 7.734200 163.971293 -37.186717 -173.051420 25.432998 -33.649689 -7.452420 0.425671 0.255710 -0.436046 -7.125000 0.000000 0.000000 25.782255 46.460968 -29.116668 -130.467120 53.538642 -91.831094 0.464020 -0.453390 -6.734845 7.125000 0.000000 0.000000 
-5.940185 17.834682 3.011267 -7.107376 34.866758 5.580714 4.036811 16.338057 -13.110356 3.995462 11.105747 33.959844 -1.687308 14.936917 15.824084 3.593700 -11.599200 -34.328500 18.268982 26.110596 -20.918578 -2.512489 -9.058855 28.249532 -0.584934 24.185455 15.485303 -3.245300 -11.081900 32.556500 -10.144368 -14.229931 -2.724025 7.361709 -6.939069 0.202940 -7.971485 32.168150 8.725001 -1.120800 14.662100 7.748200 164.211838 -37.178377 -173.303897 25.178640 -33.395112 -7.312849 0.416949 0.258721 -0.145957 -7.125000 0.000000 0.000000 26.233258 46.620853 -28.687703 -129.916290 53.758650 -91.365475 0.455242 -0.441753 -8.150285 7.125000 0.000000 0.000000 
-5.938382 17.836385 2.973098 -7.269670 35.298665 5.577667 3.936542 16.431574 -13.453541 3.977472 11.111172 33.945655 -1.780605 14.977320 15.148080 3.507600 -11.474600 -33.897800 18.170842 25.942613 -21.189458 -2.507105 -9.036776 28.188056 -0.593708 24.125409 15.078024 -2.991000 -10.680400 31.209500 -9.937787 -14.295896 -2.752108 7.459458 -6.965196 0.064045 -7.992385 32.224813 8.827298 -1.119400 14.687100 7.779300 164.478950 -37.337808 -173.762033 24.908411 -33.110109 -7.156405 0.396184 0.263185 -0.349572 -7.125000 0.000000 0.000000 26.802106 46.902432 -28.054479 -129.358657 53.991967 -90.897618 0.445434 -0.434578 -9.214288 7.125000 0.000000 0.000000 
-5.938482 17.836785 2.932925 -7.561569 35.785293 5.491919 3.934419 16.514190 -13.791076 3.952996 11.104054 33.891902 -1.912464 15.066758 14.209090 3.315000 -11.188400 -32.917800 18.161245 25.881420 -21.424572 -2.503568 -9.013030 28.126365 -0.619063 23.920095 14.603563 -2.758800 -10.294000 29.934000 -9.593909 -14.379748 -2.699373 7.590108 -7.010911 -0.019531 -7.981385 32.255758 8.853622 -1.098800 14.697000 7.760200 164.742331 -37.583970 -174.304717 24.667183 -32.857303 -7.017201 0.372149 0.266920 -0.640724 -7.125000 0.000000 0.000000 27.273208 47.367790 -27.627219 -128.854975 54.205487 -90.484212 0.436908 -0.433114 -9.683645 7.125000 0.000000 0.000000 
-5.937681 17.841995 2.893754 -7.762841 36.400105 5.407113 3.849466 16.590881 -14.118711 3.908231 11.073007 33.800736 -1.932475 14.727684 13.533261 3.306400 -11.175300 -32.873300 18.053244 25.654050 -21.671197 -2.493597 -8.995288 28.062583 -0.652056 23.655769 14.247305 -2.628600 -10.068000 29.197300 -9.296648 -14.315049 -2.271118 7.667811 -7.010835 0.018530 -7.784568 32.153476 9.114940 -0.943600 14.597200 7.847600 164.822303 -37.546893 -174.474598 24.483836 -32.655434 -6.908805 0.349636 0.270921 -0.784284 -7.125000 0.000000 0.000000 27.392691 47.696391 -27.787567 -128.341408 54.399454 -90.060409 0.431468 -0.434476 -10.174403 7.125000 0.000000 0.000000 
-5.934174 17.847304 2.855084 -7.820437 37.085843 5.366535 3.643331 16.630170 -14.374627 3.849749 11.025529 33.661484 -1.982504 14.529515 12.808684 3.231900 -11.061400 -32.487200 17.840459 25.143017 -21.978218 -2.484875 -8.997027 28.033357 -0.669953 23.541928 13.952029 -2.517200 -9.869100 28.553800 -9.177844 -14.204664 -1.843518 7.675016 -6.983639 0.025883 -7.542353 32.031824 9.398004 -0.801000 14.501600 7.938600 164.942042 -37.404453 -174.561410 24.283820 -32.437318 -6.791772 0.322729 0.275536 -1.065197 -7.125000 0.000000 0.000000 27.678141 47.836123 -27.886128 -127.763785 54.613230 -89.570718 0.425100 -0.435201 -10.840164 7.125000 0.000000 0.000000 
